ply
format ascii 1.0
element vertex 19
property float x
property float y
property float z
property uchar red
property uchar green
property uchar blue
property uchar alpha
end_header
16.3973 -7.4674 47.3991  100 124 148 255
18.6309 -4.3646 30.7770  49 53 56 255
15.9345 -6.2961 44.0207  144 125 111 255
15.6980 -3.8872 27.8343  63 67 68 255
9.5686 -1.9152 23.4082  131 168 195 255
7.2986 -2.1340 27.5784  74 87 96 255
9.8395 -1.8516 26.5916  205 220 227 255
10.2737 -1.9611 29.2258  93 110 128 255
10.9423 -0.9813 20.6202  76 82 78 255
10.3928 -0.7599 19.7445  125 92 83 255
13.0108 -0.7792 21.9568  112 92 91 255
12.2561 -0.5284 20.8704  107 118 112 255
12.2987 -0.3094 20.9664  157 138 123 255
12.4538 -0.0096 20.9199  212 190 192 255
7.6369 0.4723 16.3575  52 52 52 255
9.2069 -2.0411 -36.6996  175 172 163 255
11.8314 2.1782 20.2202  139 126 118 255
17.2457 10.3779 58.9781  100 120 129 255
16.7726 5.2673 27.3421  38 19 15 255
